# xmcd
#
# Track frame offsets: 
#        150
#        20230
#        50755
#        100417
#        116242
#        164557
#        182812
#        198875
#        222370
#        265582
#
# Disc length: 3792 seconds
#
# Revision: 1
# Processed by: cddbd v1.5.1PL2 Copyright (c) Steve Scherf et al.
# Submitted via: ExactAudioCopy v0.95b4
#
DISCID=980ece0a
DTITLE=Various Artist - Moonlight-cruise
DYEAR=1991
DGENRE=Jazz
TTITLE0=Bud Powell - Cleopatra's Dream
TTITLE1=Duke Jordan - Si Joya
TTITLE2=Cannonball Adderley - Autumn Leaves
TTITLE3=Dinah Shore - Blues in The Night
TTITLE4=John Coltrane - Blue Train
TTITLE5=Kenny Burrell - Midnight Blue
TTITLE6=Four Freshmen - Angel Eyes
TTITLE7=Art Blakey - Moon River
TTITLE8=Sonny Clark - Deep Night
TTITLE9=Hoagy CarMichael - Winter Moon
EXTD=YEAR: 1991
EXTT0=
EXTT1=
EXTT2=
EXTT3=
EXTT4=
EXTT5=
EXTT6=
EXTT7=
EXTT8=
EXTT9=
PLAYORDER=
